<?xml version="1.0" encoding="UTF-8" standalone="no"?>
<!DOCTYPE svg PUBLIC "-//W3C//DTD SVG 1.1//EN" "http://www.w3.org/Graphics/SVG/1.1/DTD/svg11.dtd">
<svg width="100%" height="100%" viewBox="0 0 24 24" version="1.1" xmlns="http://www.w3.org/2000/svg" xmlns:xlink="http://www.w3.org/1999/xlink" xml:space="preserve" xmlns:serif="http://www.serif.com/" style="fill-rule:evenodd;clip-rule:evenodd;stroke-linejoin:round;stroke-miterlimit:2;">
    <path d="M11.5,15.97L11.91,18.41C11.65,18.55 11.23,18.68 10.67,18.8C10.1,18.93 9.43,19 8.66,19C6.45,18.96 4.79,18.3 3.68,17.04C2.56,15.77 2,14.16 2,12.21C2.05,9.9 2.72,8.13 4,6.89C5.32,5.64 6.96,5 8.94,5C9.69,5 10.34,5.07 10.88,5.19C11.42,5.31 11.82,5.44 12.08,5.59L11.5,8.08L10.44,7.74C10.04,7.64 9.58,7.59 9.05,7.59C7.89,7.58 6.93,7.95 6.18,8.69C5.42,9.42 5.03,10.54 5,12.03C5,13.39 5.37,14.45 6.08,15.23C6.79,16 7.79,16.4 9.07,16.41L10.4,16.29C10.83,16.21 11.19,16.1 11.5,15.97M13.89,19L14.5,15L13,15L13.34,13L14.84,13L15.16,11L13.66,11L14,9L15.5,9L16.11,5L18.11,5L17.5,9L18.5,9L19.11,5L21.11,5L20.5,9L22,9L21.66,11L20.16,11L19.84,13L21.34,13L21,15L19.5,15L18.89,19L16.89,19L17.5,15L16.5,15L15.89,19L13.89,19M16.84,13L17.84,13L18.16,11L17.16,11L16.84,13Z" style="fill:rgb(186,104,200);fill-rule:nonzero;"/>
</svg>
